<svg width="24" height="24" viewBox="0 0 24 24" fill="none" xmlns="http://www.w3.org/2000/svg">
<g clip-path="url(#clip0_1394:22371)">
<path d="M22.5714 14.5711L20.8915 11.2716C20.8115 11.1144 20.65 11.0154 20.4736 11.0154H12H3.52629C3.34986 11.0154 3.18839 11.1144 3.10833 11.2716L1.42848 14.5711C1.35448 14.7165 1.36132 14.8899 1.44658 15.029C1.53185 15.1681 1.68328 15.2528 1.84639 15.2528H2.43178V23.5312C2.43178 23.7902 2.64174 24.0002 2.90076 24.0002H21.0977C21.3567 24.0002 21.5666 23.7902 21.5666 23.5312V15.2529H22.1534C22.3165 15.2529 22.468 15.1681 22.5532 15.029C22.6385 14.8899 22.6454 14.7165 22.5714 14.5711ZM20.1861 11.9533L21.3884 14.3149H13.9673L12.765 11.9533H20.1861ZM3.81383 11.9533H11.2349L10.0326 14.3149H2.61149L3.81383 11.9533ZM20.6288 23.0622H12.469V20.463C12.469 20.204 12.259 19.994 12 19.994C11.741 19.994 11.531 20.204 11.531 20.463V23.0622H3.36984V15.2529H10.3201C10.4966 15.2529 10.658 15.1539 10.7381 14.9967L11.531 13.4392V20.5C11.531 20.759 11.741 20.969 12 20.969C12.259 20.969 12.469 20.759 12.469 20.5V13.4392L13.2619 14.9967C13.3419 15.1539 13.5034 15.2529 13.6798 15.2529H20.6288V23.0622Z" fill="white"/>
<path d="M7.98956 20.4937H5.31908C5.06006 20.4937 4.8501 20.7037 4.8501 20.9626C4.8501 21.2216 5.06006 21.4316 5.31908 21.4316H7.98956C8.24858 21.4316 8.45854 21.2216 8.45854 20.9626C8.45854 20.7037 8.24858 20.4937 7.98956 20.4937Z" fill="white"/>
<path d="M12 9.63611C14.6537 9.63611 16.8128 7.47443 16.8128 4.8174C16.8127 2.16108 14.6537 0 12 0C9.34561 0 7.18604 2.16108 7.18604 4.8174C7.18604 7.47443 9.34556 9.63611 12 9.63611ZM12 0.937967C14.1366 0.937967 15.8748 2.67827 15.8748 4.8174C15.8748 6.95728 14.1366 8.69814 12 8.69814C9.8628 8.69814 8.124 6.95728 8.124 4.8174C8.124 2.67827 9.86275 0.937967 12 0.937967Z" fill="white"/>
<path d="M9.89766 5.52079L11.146 6.57891C11.231 6.65099 11.3386 6.69015 11.4492 6.69015C11.4625 6.69015 11.4759 6.68959 11.4893 6.68846C11.6137 6.67777 11.7288 6.61793 11.8089 6.52212L14.1581 3.7145C14.3243 3.51588 14.298 3.2201 14.0993 3.05384C13.9007 2.88773 13.6049 2.91394 13.4387 3.1126L11.3925 5.55821L10.5042 4.80526C10.3067 4.63779 10.0107 4.66208 9.84326 4.85976C9.67569 5.05739 9.70007 5.35327 9.89766 5.52079Z" fill="white"/>
<path d="M2.78685 5.28636H4.81596C5.07498 5.28636 5.28494 5.07635 5.28494 4.81737C5.28494 4.5584 5.07498 4.34839 4.81596 4.34839H2.78685C2.52784 4.34839 2.31787 4.5584 2.31787 4.81737C2.31787 5.07635 2.52784 5.28636 2.78685 5.28636Z" fill="white"/>
<path d="M2.56766 2.02305L4.59677 3.09322C4.66655 3.13004 4.74136 3.14748 4.81517 3.14748C4.98354 3.14748 5.14637 3.05655 5.23041 2.89718C5.35122 2.66809 5.26347 2.3844 5.03438 2.26359L3.00522 1.19341C2.77622 1.0726 2.49244 1.1603 2.37163 1.38945C2.25082 1.61855 2.33856 1.90224 2.56766 2.02305Z" fill="white"/>
<path d="M2.37199 8.24496C2.45599 8.40442 2.61882 8.49549 2.78732 8.49549C2.861 8.49549 2.9358 8.4781 3.00549 8.44137L5.0346 7.37256C5.26374 7.25184 5.35168 6.9682 5.23096 6.73905C5.11024 6.50986 4.8266 6.42197 4.59746 6.54264L2.56835 7.61146C2.33921 7.73218 2.25132 8.01582 2.37199 8.24496Z" fill="white"/>
<path d="M19.1829 5.28636H21.212C21.471 5.28636 21.6809 5.07635 21.6809 4.81737C21.6809 4.5584 21.471 4.34839 21.212 4.34839H19.1829C18.9238 4.34839 18.7139 4.5584 18.7139 4.81737C18.7139 5.07635 18.9238 5.28636 19.1829 5.28636Z" fill="white"/>
<path d="M19.1833 3.14751C19.2571 3.14751 19.3319 3.13006 19.4017 3.09325L21.4308 2.02308C21.6599 1.90227 21.7476 1.61858 21.6268 1.38948C21.506 1.16038 21.2223 1.07254 20.9932 1.19345L18.9641 2.26362C18.735 2.38443 18.6473 2.66812 18.7681 2.89721C18.8522 3.05657 19.0149 3.14751 19.1833 3.14751Z" fill="white"/>
<path d="M18.9639 7.37258L20.993 8.4414C21.0627 8.47812 21.1375 8.49552 21.2112 8.49552C21.3797 8.49552 21.5425 8.40449 21.6265 8.24499C21.7472 8.01584 21.6593 7.7322 21.4301 7.61149L19.401 6.54267C19.1718 6.42196 18.8882 6.50984 18.7675 6.73908C18.6468 6.96823 18.7347 7.25187 18.9639 7.37258Z" fill="white"/>
</g>
<defs>
<clipPath id="clip0_1394:22371">
<rect width="24" height="24" fill="white"/>
</clipPath>
</defs>
</svg>
