<svg width="16" height="16" viewBox="0 0 16 16" fill="none" xmlns="http://www.w3.org/2000/svg">
<g clip-path="url(#clip0_1405:14200)">
<path d="M7.33333 14.128L0 10.7667V12.3333C0 12.466 0.0786667 12.586 0.200667 12.6387L7.33333 15.74V14.128Z" fill="white"/>
<path d="M8.66675 14.128V15.7407L15.7994 12.6393C15.9214 12.586 16.0001 12.466 16.0001 12.3333V10.7667L8.66675 14.128Z" fill="white"/>
<path d="M8.83343 9.33329H7.16676C6.70743 9.33329 6.33343 8.95929 6.33343 8.49996V4.49996H4.50009C4.05609 4.49996 3.83276 3.96062 4.14676 3.64662L7.64676 0.146622C7.84209 -0.0487113 8.15876 -0.0487113 8.35409 0.146622L11.8541 3.64662C12.1681 3.96062 11.9448 4.49996 11.5008 4.49996H9.66676V8.49996C9.66676 8.95929 9.29276 9.33329 8.83343 9.33329Z" fill="white"/>
<path d="M11 7.37537V8.50003C11 9.6947 10.028 10.6667 8.83333 10.6667H7.16667C5.972 10.6667 5 9.6947 5 8.50003V7.37537L0 9.6667L8 13.3334L16 9.6667L11 7.37537Z" fill="white"/>
</g>
<defs>
<clipPath id="clip0_1405:14200">
<rect width="16" height="16" fill="white"/>
</clipPath>
</defs>
</svg>
