<svg width="24" height="24" viewBox="0 0 24 24" fill="none" xmlns="http://www.w3.org/2000/svg">
<path d="M6.04273 23.9164C6.35327 24.083 6.7383 23.9937 6.94432 23.7095L18.1943 8.19395C18.3494 7.98002 18.3715 7.69713 18.2514 7.46167C18.1313 7.22627 17.8893 7.07805 17.6251 7.07805H14.6439L18.229 1.06307C18.3585 0.845809 18.3613 0.575716 18.2364 0.35578C18.1115 0.135843 17.878 0 17.6251 0H9.18761C8.86468 0 8.58329 0.219937 8.5053 0.533248L5.69281 11.8301C5.64054 12.0401 5.68788 12.2625 5.8211 12.4329C5.95437 12.6035 6.1587 12.7031 6.37507 12.7031H9.5807L5.71643 23.0508C5.59334 23.3803 5.73274 23.7501 6.04273 23.9164ZM11.2525 12.246C11.3332 12.0301 11.3029 11.7884 11.1715 11.5991C11.0401 11.4098 10.8243 11.2968 10.5938 11.2968H7.27474L9.73712 1.40624H16.3875L12.8024 7.42122C12.6729 7.63849 12.6701 7.90858 12.795 8.12852C12.92 8.34845 13.1534 8.48429 13.4064 8.48429H16.2468L8.84514 18.6924L11.2525 12.246Z" fill="white"/>
</svg>
