<svg width="24" height="24" viewBox="0 0 24 24" fill="none" xmlns="http://www.w3.org/2000/svg">
<path d="M23.9663 13.3587C23.9663 13.3586 23.9663 13.3585 23.9662 13.3584L19.4349 1.98068C19.3387 1.73893 19.0647 1.62091 18.823 1.71708C18.8228 1.71714 18.8226 1.7172 18.8224 1.71732L0.439561 9.03721C0.364593 9.0696 0.299577 9.1213 0.25111 9.18703C0.0982298 9.26647 0.00164894 9.42371 0 9.59596V21.8452C0 22.1054 0.210947 22.3164 0.471126 22.3164H20.2584C20.5186 22.3164 20.7296 22.1054 20.7296 21.8452V15.1553L23.7033 13.9708C23.945 13.8744 24.0627 13.6004 23.9663 13.3587ZM19.7873 21.3741H0.942253V10.0671H19.7873V21.3741ZM7.86074 9.12719L15.7493 5.98384C16.4533 6.72386 17.4288 7.14446 18.4502 7.14846L19.237 9.12719H7.86074ZM20.7296 14.1433V9.59596C20.7296 9.33578 20.5186 9.12484 20.2584 9.12484H20.2509L19.2526 6.6175C19.2415 6.5966 19.2286 6.57669 19.2139 6.55814C19.1634 6.33123 18.9533 6.17641 18.7216 6.19537C17.7712 6.282 16.8415 5.88166 16.2515 5.13157C16.1047 4.95036 15.8466 4.90531 15.647 5.02604C15.6247 5.02869 15.6025 5.03281 15.5806 5.03829L5.94985 8.87326C5.83331 8.91895 5.74009 9.00959 5.69121 9.12484H2.76645L18.7339 2.76699L22.917 13.2707L20.7296 14.1433Z" fill="#3E3E3E"/>
<path d="M2.22066 18.1935C3.13535 18.4638 3.85111 19.1787 4.1226 20.093C4.18214 20.2926 4.3657 20.4294 4.57394 20.4294C4.59838 20.4279 4.62264 20.4242 4.64649 20.4186C4.66763 20.4246 4.68925 20.429 4.71104 20.4318H16.0181C16.0375 20.4293 16.0567 20.4253 16.0755 20.42C16.3109 20.4772 16.5481 20.3329 16.6054 20.0975C16.6056 20.0966 16.6059 20.0958 16.606 20.0949C16.8768 19.1796 17.5927 18.4638 18.508 18.193C18.7299 18.1252 18.8679 17.904 18.8312 17.6748C18.8375 17.6519 18.842 17.6286 18.8448 17.605V13.836C18.8421 13.8124 18.8373 13.7891 18.8307 13.7663C18.8676 13.537 18.7296 13.3157 18.5075 13.2481C17.5922 12.9773 16.8765 12.2612 16.6065 11.3457C16.5383 11.1222 16.3149 10.9839 16.0845 11.0225C16.0627 11.0164 16.0405 11.012 16.0181 11.0093H4.71104C4.6873 11.0121 4.66381 11.0168 4.64084 11.0234C4.41169 10.9869 4.19062 11.1248 4.1226 11.3466C3.85164 12.2617 3.13582 12.9773 2.22066 13.2481C1.9987 13.3159 1.86078 13.5371 1.89747 13.7663C1.89134 13.7892 1.88693 13.8125 1.88428 13.836V17.605C1.88699 17.6272 1.8914 17.6491 1.89747 17.6705C1.85884 17.9012 1.99705 18.1249 2.22066 18.1935ZM2.82653 14.0273C3.77255 13.6473 4.52235 12.8975 4.90231 11.9515H15.8263C16.2065 12.8975 16.9564 13.6473 17.9026 14.0273V17.4138C16.9568 17.7941 16.2072 18.5438 15.8268 19.4895H4.90231C4.52194 18.5438 3.77226 17.7941 2.82653 17.4138V14.0273Z" fill="#3E3E3E"/>
<path d="M10.3648 18.5473C11.926 18.5473 13.1916 17.2817 13.1916 15.7205C13.1916 14.1594 11.926 12.8938 10.3648 12.8938C8.80365 12.8938 7.53809 14.1594 7.53809 15.7205C7.53962 17.2811 8.8043 18.5458 10.3648 18.5473ZM10.3648 13.836C11.4056 13.836 12.2493 14.6798 12.2493 15.7205C12.2493 16.7613 11.4056 17.605 10.3648 17.605C9.32407 17.605 8.48034 16.7613 8.48034 15.7205C8.48034 14.6798 9.32407 13.836 10.3648 13.836Z" fill="#3E3E3E"/>
<path d="M5.18228 16.4273C5.57254 16.4273 5.88896 16.1109 5.88896 15.7206C5.88896 15.3303 5.57254 15.0139 5.18228 15.0139C4.79201 15.0139 4.47559 15.3303 4.47559 15.7206C4.47559 16.1109 4.79201 16.4273 5.18228 16.4273ZM5.18228 15.485C5.31236 15.485 5.41784 15.5905 5.41784 15.7206C5.41784 15.8507 5.31236 15.9562 5.18228 15.9562C5.05219 15.9562 4.94671 15.8507 4.94671 15.7206C4.94671 15.5905 5.05219 15.485 5.18228 15.485Z" fill="#3E3E3E"/>
<path d="M15.547 16.4273C15.9373 16.4273 16.2537 16.1109 16.2537 15.7206C16.2537 15.3303 15.9373 15.0139 15.547 15.0139C15.1568 15.0139 14.8403 15.3303 14.8403 15.7206C14.8403 16.1109 15.1568 16.4273 15.547 16.4273ZM15.547 15.485C15.6771 15.485 15.7826 15.5905 15.7826 15.7206C15.7826 15.8507 15.6771 15.9562 15.547 15.9562C15.4169 15.9562 15.3115 15.8507 15.3115 15.7206C15.3115 15.5905 15.4169 15.485 15.547 15.485Z" fill="#3E3E3E"/>
</svg>
