<svg width="16" height="17" viewBox="0 0 16 17" fill="none" xmlns="http://www.w3.org/2000/svg">
<g clip-path="url(#clip0_1405:13053)">
<path d="M3.99093 12.6486C3.33844 12.0611 2.86774 11.3567 2.55935 10.6003C1.74131 8.59414 2.12436 6.20818 3.72149 4.56235L5.19527 6.03613C5.27642 6.11728 5.4225 6.05885 5.44198 5.93874L6.24704 0.670148C6.26003 0.582501 6.18536 0.507838 6.09772 0.520823L0.825875 1.32588C0.705766 1.34536 0.647334 1.49144 0.728489 1.57259L2.20551 3.04962C-0.232388 5.5427 -0.647902 9.28233 0.952478 12.2039C1.43292 13.0836 2.09839 13.8887 2.94565 14.5639C4.38696 15.7098 6.15939 16.2584 7.91884 16.2227L8.24995 14.0575C6.73397 14.1874 5.17579 13.7199 3.99093 12.6486Z" fill="#818180"/>
<path d="M13.7944 13.9504C16.2323 11.4573 16.6479 7.71766 15.0475 4.79607C14.567 3.91635 13.9016 3.11129 13.0543 2.43608C11.613 1.29017 9.84056 0.741563 8.08111 0.777271L7.75 2.94249C9.26273 2.81264 10.8242 3.2801 12.009 4.35134C12.6615 4.93891 13.1322 5.64333 13.4406 6.3997C14.2586 8.40586 13.8756 10.7918 12.2785 12.4376L10.8047 10.9639C10.7235 10.8827 10.5774 10.9411 10.558 11.0613L9.75291 16.3298C9.73992 16.4175 9.81459 16.4922 9.90223 16.4792L15.1741 15.6741C15.2942 15.6546 15.3494 15.5086 15.2715 15.4274L13.7944 13.9504Z" fill="#818180"/>
</g>
<defs>
<clipPath id="clip0_1405:13053">
<rect width="16" height="16" fill="white" transform="translate(0 0.5)"/>
</clipPath>
</defs>
</svg>
