<svg width="16" height="17" viewBox="0 0 16 17" fill="none" xmlns="http://www.w3.org/2000/svg">
<g clip-path="url(#clip0_1405:13038)">
<path d="M7.33333 14.628L0 11.2667V12.8333C0 12.966 0.0786667 13.086 0.200667 13.1387L7.33333 16.24V14.628Z" fill="#818180"/>
<path d="M8.66699 14.628V16.2407L15.7996 13.1393C15.9216 13.086 16.0003 12.966 16.0003 12.8333V11.2667L8.66699 14.628Z" fill="#818180"/>
<path d="M8.83343 9.83329H7.16676C6.70743 9.83329 6.33343 9.45929 6.33343 8.99996V4.99996H4.50009C4.05609 4.99996 3.83276 4.46062 4.14676 4.14662L7.64676 0.646622C7.84209 0.451289 8.15876 0.451289 8.35409 0.646622L11.8541 4.14662C12.1681 4.46062 11.9448 4.99996 11.5008 4.99996H9.66676V8.99996C9.66676 9.45929 9.29276 9.83329 8.83343 9.83329Z" fill="#818180"/>
<path d="M11 7.87537V9.00003C11 10.1947 10.028 11.1667 8.83333 11.1667H7.16667C5.972 11.1667 5 10.1947 5 9.00003V7.87537L0 10.1667L8 13.8334L16 10.1667L11 7.87537Z" fill="#818180"/>
</g>
<defs>
<clipPath id="clip0_1405:13038">
<rect width="16" height="16" fill="white" transform="translate(0 0.5)"/>
</clipPath>
</defs>
</svg>
