<svg width="24" height="24" viewBox="0 0 24 24" fill="none" xmlns="http://www.w3.org/2000/svg">
<g clip-path="url(#clip0_1394:22422)">
<path d="M11.9998 4.17383C9.98594 4.17383 8.34766 5.81207 8.34766 7.82602C8.34766 9.83996 9.9859 11.4782 11.9998 11.4782C14.0138 11.4782 15.652 9.83991 15.652 7.82602C15.652 5.81212 14.0138 4.17383 11.9998 4.17383ZM11.9998 10.4347C10.5619 10.4347 9.39116 9.26391 9.39116 7.82602C9.39116 6.38812 10.5619 5.21734 11.9998 5.21734C13.4377 5.21734 14.6085 6.38812 14.6085 7.82602C14.6085 9.26391 13.4378 10.4347 11.9998 10.4347Z" fill="#3E3E3E"/>
<path d="M19.3045 8.3479C17.8666 8.3479 16.6958 9.51869 16.6958 10.9566C16.6958 12.3945 17.8666 13.5653 19.3045 13.5653C20.7424 13.5653 21.9132 12.3945 21.9132 10.9566C21.9132 9.51869 20.7424 8.3479 19.3045 8.3479ZM19.3045 12.5218C18.4415 12.5218 17.7393 11.8196 17.7393 10.9566C17.7393 10.0936 18.4415 9.39136 19.3045 9.39136C20.1674 9.39136 20.8697 10.0936 20.8697 10.9566C20.8697 11.8196 20.1674 12.5218 19.3045 12.5218Z" fill="#3E3E3E"/>
<path d="M4.76981 8.3479C3.33084 8.3479 2.16113 9.51869 2.16113 10.9566C2.16113 12.3945 3.33192 13.5653 4.76981 13.5653C6.20771 13.5653 7.3785 12.3945 7.3785 10.9566C7.3785 9.51869 6.20874 8.3479 4.76981 8.3479ZM4.76981 12.5218C3.90684 12.5218 3.2046 11.8196 3.2046 10.9566C3.2046 10.0936 3.90684 9.39136 4.76981 9.39136C5.63279 9.39136 6.33503 10.0936 6.33503 10.9566C6.33503 11.8196 5.63274 12.5218 4.76981 12.5218Z" fill="#3E3E3E"/>
<path d="M11.9999 12.5217C8.26007 12.5217 5.21729 15.5645 5.21729 19.3043C5.21729 19.5923 5.45104 19.8261 5.73904 19.8261C6.02704 19.8261 6.2608 19.5923 6.2608 19.3043C6.2608 16.1395 8.83504 13.5652 11.9999 13.5652C15.1648 13.5652 17.739 16.1395 17.739 19.3043C17.739 19.5923 17.9728 19.8261 18.2608 19.8261C18.5488 19.8261 18.7825 19.5923 18.7825 19.3043C18.7825 15.5645 15.7397 12.5217 11.9999 12.5217Z" fill="#3E3E3E"/>
<path d="M19.3046 14.6086C18.4459 14.6086 17.6048 14.8434 16.8723 15.2869C16.6271 15.4372 16.5478 15.7575 16.697 16.0038C16.8483 16.2501 17.1676 16.3283 17.4139 16.1791C17.9825 15.8337 18.6358 15.6521 19.3046 15.6521C21.3185 15.6521 22.9568 17.2903 22.9568 19.3043C22.9568 19.5923 23.1906 19.826 23.4786 19.826C23.7666 19.826 24.0003 19.5923 24.0003 19.3043C24.0003 16.7154 21.8935 14.6086 19.3046 14.6086Z" fill="#3E3E3E"/>
<path d="M7.12697 15.2858C6.39547 14.8434 5.55446 14.6086 4.69565 14.6086C2.10678 14.6086 0 16.7154 0 19.3043C0 19.5923 0.233755 19.826 0.521755 19.826C0.809755 19.826 1.04351 19.5923 1.04351 19.3043C1.04346 17.2903 2.68175 15.6521 4.69565 15.6521C5.36453 15.6521 6.01772 15.8337 6.5854 16.178C6.8306 16.3273 7.15201 16.249 7.30227 16.0027C7.45253 15.7564 7.3732 15.4361 7.12697 15.2858Z" fill="#3E3E3E"/>
</g>
<defs>
<clipPath id="clip0_1394:22422">
<rect width="24" height="24" fill="white"/>
</clipPath>
</defs>
</svg>
